<svg viewBox="0 0 32 36" fill="none" xmlns="http://www.w3.org/2000/svg">
<g filter="url(#filter0_d_21_182)">
<path d="M16 4C13.8921 3.99989 11.8693 4.83176 10.3712 6.31479C8.87323 7.79782 8.02108 9.81216 8 11.92C8 17.4 15.05 23.5 15.35 23.76C15.5311 23.9149 15.7616 24.0001 16 24.0001C16.2384 24.0001 16.4689 23.9149 16.65 23.76C17 23.5 24 17.4 24 11.92C23.9789 9.81216 23.1268 7.79782 21.6288 6.31479C20.1307 4.83176 18.1079 3.99989 16 4ZM16 15C15.3078 15 14.6311 14.7947 14.0555 14.4101C13.4799 14.0256 13.0313 13.4789 12.7664 12.8394C12.5015 12.1999 12.4322 11.4961 12.5673 10.8172C12.7023 10.1382 13.0356 9.51461 13.5251 9.02513C14.0146 8.53564 14.6382 8.2023 15.3172 8.06725C15.9961 7.9322 16.6999 8.00151 17.3394 8.26642C17.9789 8.53133 18.5256 8.97993 18.9101 9.5555C19.2947 10.1311 19.5 10.8078 19.5 11.5C19.5 12.4283 19.1313 13.3185 18.4749 13.9749C17.8185 14.6313 16.9283 15 16 15Z" fill="#00682C"/>
</g>
<defs>
<filter id="filter0_d_21_182" x="0" y="0" width="32" height="36.0001" filterUnits="userSpaceOnUse" color-interpolation-filters="sRGB">
<feFlood flood-opacity="0" result="BackgroundImageFix"/>
<feColorMatrix in="SourceAlpha" type="matrix" values="0 0 0 0 0 0 0 0 0 0 0 0 0 0 0 0 0 0 127 0" result="hardAlpha"/>
<feMorphology radius="4" operator="dilate" in="SourceAlpha" result="effect1_dropShadow_21_182"/>
<feOffset dy="4"/>
<feGaussianBlur stdDeviation="2"/>
<feComposite in2="hardAlpha" operator="out"/>
<feColorMatrix type="matrix" values="0 0 0 0 0 0 0 0 0 0 0 0 0 0 0 0 0 0 0.25 0"/>
<feBlend mode="normal" in2="BackgroundImageFix" result="effect1_dropShadow_21_182"/>
<feBlend mode="normal" in="SourceGraphic" in2="effect1_dropShadow_21_182" result="shape"/>
</filter>
</defs>
</svg>
