<svg viewBox="0 0 68 68" xmlns="http://www.w3.org/2000/svg">
<path d="M34.0368 45.8525C34.4812 45.8525 34.8979 45.7825 35.2868 45.6425C35.6756 45.5047 36.0367 45.2691 36.37 44.9357L45.036 36.2687C45.6471 35.6575 45.9526 34.8797 45.9525 33.9353C45.9524 32.9909 45.6468 32.2131 45.0356 31.602C44.4245 30.9909 43.6467 30.6854 42.7022 30.6855C41.7578 30.6855 40.98 30.9911 40.369 31.6022L37.3692 34.6024L37.3683 23.9357C37.3683 22.9913 37.0493 22.199 36.4115 21.5591C35.7714 20.9213 34.9792 20.6025 34.0347 20.6025C33.0903 20.6026 32.2992 20.9215 31.6615 21.5593C31.0215 22.1993 30.7016 22.9916 30.7017 23.936L30.7025 34.6027L27.7023 31.6028C27.0911 30.9917 26.3133 30.6862 25.3689 30.6863C24.4244 30.6863 23.6467 30.9919 23.0356 31.603C22.4246 32.2142 22.1191 32.992 22.1191 33.9364C22.1192 34.8809 22.4248 35.6586 23.036 36.2697L31.7034 44.936C32.0367 45.2693 32.3979 45.5048 32.7868 45.6426C33.1757 45.7826 33.5923 45.8525 34.0368 45.8525ZM34.0385 67.2692C29.4274 67.2694 25.094 66.3941 21.0383 64.6431C16.9826 62.8944 13.4546 60.5201 10.4544 57.5203C7.45415 54.5204 5.07942 50.9928 3.3302 46.9373C1.57876 42.8818 0.702855 38.5485 0.70248 33.9374C0.702105 29.3263 1.57731 24.9929 3.32809 20.9373C5.07665 16.8816 7.45081 13.3538 10.4506 10.3536C13.4503 7.35348 16.9779 4.97776 21.0333 3.22646C25.0887 1.47738 29.422 0.602736 34.0331 0.602522C38.6442 0.602307 42.9776 1.47655 47.0333 3.22525C51.089 4.97617 54.617 7.35156 57.6172 10.3514C60.6175 13.3513 62.9922 16.879 64.7414 20.9344C66.4929 24.9899 67.3688 29.3232 67.3691 33.9343C67.3695 38.5454 66.4943 42.8788 64.7435 46.9344C62.995 50.9901 60.6208 54.518 57.6211 57.5181C54.6213 60.5182 51.0937 62.8928 47.0383 64.6419C42.9829 66.3932 38.6496 67.269 34.0385 67.2692Z"/>
</svg>
